# xmcd
#
# Track frame offsets:
#	150
#	11010
#	21222
#	31680
#	45377
#	54767
#	67067
#	79210
#	91147
#	101602
#	113065
#	125100
#	138150
#	148762
#	162192
#	174542
#	184900
#	197420
#	208792
#	219952
#
# Disc length: 3090 seconds
#
# Revision: 0
# Processed by: cddbd v1.5.2PL0 Copyright (c) Steve Scherf et al.
# Submitted via: EasyCDDAExtractor 2010.6.0.0
#
DISCID=0f0c1014
DTITLE=Various Artist - The Super Star
DYEAR=1900
DGENRE=Pop
TTITLE0=Neil Sedaka - One Way Ticket
TTITLE1=Pat Boone - Love Letter in the Sand
TTITLE2=Neil Sedaka - Oh! Carol
TTITLE3=Pat Boone - I'll be Home
TTITLE4=Neil Sedaka - Going home to marry You
TTITLE5=Pat Boone - April Love
TTITLE6=Neil Sedaka - Calendat Girl
TTITLE7=Pat Boone - Moody River
TTITLE8=Neil Sedaka - The Diary
TTITLE9=Pat Boone - Speedy Gonzales
TTITLE10=Neil Sedaka - Happy Birthday, Sweet Sixteen
TTITLE11=Pat Boone - Anastacia
TTITLE12=Neil Sedaka - Breaking up is hard to do
TTITLE13=Pat Boone - Friendly Persuasion
TTITLE14=Neil Sedaka - King of Crowns
TTITLE15=Pat Boone - Blue Bobby Socks
TTITLE16=Neil Sedaka - Little Devil
TTITLE17=Pat Boone - Beyond the Sunset
TTITLE18=Neil Sedaka - Next door to an angel
TTITLE19=Pat Boone - Tie me Kangaroo down Sport
EXTD=
EXTT0=
EXTT1=
EXTT2=
EXTT3=
EXTT4=
EXTT5=
EXTT6=
EXTT7=
EXTT8=
EXTT9=
EXTT10=
EXTT11=
EXTT12=
EXTT13=
EXTT14=
EXTT15=
EXTT16=
EXTT17=
EXTT18=
EXTT19=
PLAYORDER=
